<mxfile host="app.diagrams.net" modified="2024-04-19T13:24:12.664Z" agent="Mozilla/5.0 (Windows NT 10.0; Win64; x64) AppleWebKit/537.36 (KHTML, like Gecko) Chrome/124.0.0.0 Safari/537.36" version="24.2.5" etag="jEcIxOY69XjTr2oLtbm5" type="github">
  <diagram name="PÃ¡gina-1" id="FPIiuhaDS2j91a2n-M6H">
    <mxGraphModel>
      <root>
        <mxCell id="0" />
        <mxCell id="1" parent="0" />
      </root>
    </mxGraphModel>
  </diagram>
</mxfile>
